<mxfile host="Electron" modified="2023-04-18T11:40:29.226Z" agent="Mozilla/5.0 (Windows NT 10.0; Win64; x64) AppleWebKit/537.36 (KHTML, like Gecko) draw.io/21.1.2 Chrome/106.0.5249.199 Electron/21.4.3 Safari/537.36" etag="Efr7pI7alIbVMsfPHQe1" version="21.1.2" type="device">
  <diagram name="Page-1" id="b51WVZ8H72FfzSd8zI4J">
    <mxGraphModel dx="1098" dy="988" grid="1" gridSize="10" guides="1" tooltips="1" connect="1" arrows="1" fold="1" page="1" pageScale="1" pageWidth="827" pageHeight="1169" math="0" shadow="0">
      <root>
        <mxCell id="0" />
        <mxCell id="1" parent="0" />
        <mxCell id="3srKdd0KKKCA8cn5ViBD-12" value="&lt;b&gt;Script&lt;/b&gt;" style="rounded=0;whiteSpace=wrap;html=1;sketch=1;curveFitting=1;jiggle=2;fillColor=#dae8fc;strokeColor=#6c8ebf;verticalAlign=top;" parent="1" vertex="1">
          <mxGeometry x="205" y="14" width="156" height="120" as="geometry" />
        </mxCell>
        <mxCell id="3srKdd0KKKCA8cn5ViBD-26" value="&lt;b&gt;Results&lt;/b&gt;" style="rounded=0;whiteSpace=wrap;html=1;sketch=1;curveFitting=1;jiggle=2;fillColor=#dae8fc;strokeColor=#6c8ebf;verticalAlign=top;" parent="1" vertex="1">
          <mxGeometry x="162" y="448" width="240" height="120" as="geometry" />
        </mxCell>
        <mxCell id="3srKdd0KKKCA8cn5ViBD-29" value="" style="verticalLabelPosition=bottom;html=1;verticalAlign=top;strokeWidth=1;align=center;outlineConnect=0;dashed=0;outlineConnect=0;shape=mxgraph.aws3d.file;aspect=fixed;strokeColor=#292929;" parent="1" vertex="1">
          <mxGeometry x="232" y="475" width="20.8" height="47.68" as="geometry" />
        </mxCell>
        <mxCell id="3srKdd0KKKCA8cn5ViBD-31" value="" style="verticalLabelPosition=bottom;html=1;verticalAlign=top;strokeWidth=1;align=center;outlineConnect=0;dashed=0;outlineConnect=0;shape=mxgraph.aws3d.file;aspect=fixed;strokeColor=#292929;" parent="1" vertex="1">
          <mxGeometry x="220" y="478" width="20.8" height="47.68" as="geometry" />
        </mxCell>
        <mxCell id="3srKdd0KKKCA8cn5ViBD-16" value="&lt;b&gt;Netconf Payload&lt;/b&gt;" style="rounded=0;whiteSpace=wrap;html=1;sketch=1;curveFitting=1;jiggle=2;fillColor=#dae8fc;strokeColor=#6c8ebf;verticalAlign=top;" parent="1" vertex="1">
          <mxGeometry x="188" y="158" width="188" height="120" as="geometry" />
        </mxCell>
        <mxCell id="3srKdd0KKKCA8cn5ViBD-13" value="&lt;b&gt;Inventory&lt;/b&gt;" style="rounded=0;whiteSpace=wrap;html=1;sketch=1;curveFitting=1;jiggle=2;fillColor=#dae8fc;strokeColor=#6c8ebf;verticalAlign=top;" parent="1" vertex="1">
          <mxGeometry x="20" y="303" width="110" height="120" as="geometry" />
        </mxCell>
        <mxCell id="3srKdd0KKKCA8cn5ViBD-7" value="&lt;b&gt;Network Devices&lt;/b&gt;" style="rounded=0;whiteSpace=wrap;html=1;sketch=1;curveFitting=1;jiggle=2;fillColor=#f5f5f5;strokeColor=#666666;fontColor=#333333;verticalAlign=top;" parent="1" vertex="1">
          <mxGeometry x="162" y="303" width="240" height="120" as="geometry" />
        </mxCell>
        <mxCell id="3srKdd0KKKCA8cn5ViBD-1" value="devices" style="verticalLabelPosition=bottom;html=1;verticalAlign=top;strokeWidth=1;align=center;outlineConnect=0;dashed=0;outlineConnect=0;shape=mxgraph.aws3d.file;aspect=fixed;strokeColor=#292929;" parent="1" vertex="1">
          <mxGeometry x="64" y="340.62" width="20.8" height="47.68" as="geometry" />
        </mxCell>
        <mxCell id="3srKdd0KKKCA8cn5ViBD-2" value="router1" style="sketch=0;points=[[0.5,0,0],[1,0.5,0],[0.5,1,0],[0,0.5,0],[0.145,0.145,0],[0.8555,0.145,0],[0.855,0.8555,0],[0.145,0.855,0]];verticalLabelPosition=bottom;html=1;verticalAlign=top;aspect=fixed;align=center;pointerEvents=1;shape=mxgraph.cisco19.rect;prIcon=router;fillColor=#FAFAFA;strokeColor=#005073;" parent="1" vertex="1">
          <mxGeometry x="198" y="333" width="50" height="50" as="geometry" />
        </mxCell>
        <mxCell id="3srKdd0KKKCA8cn5ViBD-4" value="router3" style="sketch=0;points=[[0.5,0,0],[1,0.5,0],[0.5,1,0],[0,0.5,0],[0.145,0.145,0],[0.8555,0.145,0],[0.855,0.8555,0],[0.145,0.855,0]];verticalLabelPosition=bottom;html=1;verticalAlign=top;aspect=fixed;align=center;pointerEvents=1;shape=mxgraph.cisco19.rect;prIcon=router;fillColor=#FAFAFA;strokeColor=#005073;" parent="1" vertex="1">
          <mxGeometry x="316" y="333" width="50" height="50" as="geometry" />
        </mxCell>
        <mxCell id="3srKdd0KKKCA8cn5ViBD-5" value="router2" style="sketch=0;points=[[0.5,0,0],[1,0.5,0],[0.5,1,0],[0,0.5,0],[0.145,0.145,0],[0.8555,0.145,0],[0.855,0.8555,0],[0.145,0.855,0]];verticalLabelPosition=bottom;html=1;verticalAlign=top;aspect=fixed;align=center;pointerEvents=1;shape=mxgraph.cisco19.rect;prIcon=router;fillColor=#FAFAFA;strokeColor=#005073;" parent="1" vertex="1">
          <mxGeometry x="258" y="333" width="50" height="50" as="geometry" />
        </mxCell>
        <mxCell id="3srKdd0KKKCA8cn5ViBD-11" value="netconfBulkOps.py" style="shape=image;verticalLabelPosition=bottom;labelBackgroundColor=none;verticalAlign=top;aspect=fixed;imageAspect=0;image=https://upload.wikimedia.org/wikipedia/commons/thumb/c/c3/Python-logo-notext.svg/1869px-Python-logo-notext.svg.png;" parent="1" vertex="1">
          <mxGeometry x="264.1" y="50.45999999999998" width="37.8" height="41.38" as="geometry" />
        </mxCell>
        <mxCell id="3srKdd0KKKCA8cn5ViBD-14" value="filter" style="verticalLabelPosition=bottom;html=1;verticalAlign=top;strokeWidth=1;align=center;outlineConnect=0;dashed=0;outlineConnect=0;shape=mxgraph.aws3d.file;aspect=fixed;strokeColor=#292929;" parent="1" vertex="1">
          <mxGeometry x="218" y="193.16000000000003" width="20.8" height="47.68" as="geometry" />
        </mxCell>
        <mxCell id="3srKdd0KKKCA8cn5ViBD-15" value="config" style="verticalLabelPosition=bottom;html=1;verticalAlign=top;strokeWidth=1;align=center;outlineConnect=0;dashed=0;outlineConnect=0;shape=mxgraph.aws3d.file;aspect=fixed;strokeColor=#292929;" parent="1" vertex="1">
          <mxGeometry x="270" y="193.16000000000003" width="20.8" height="47.68" as="geometry" />
        </mxCell>
        <mxCell id="3srKdd0KKKCA8cn5ViBD-21" value="" style="endArrow=classic;html=1;rounded=0;dashed=1;exitX=1;exitY=0.5;exitDx=0;exitDy=0;entryX=0;entryY=0.5;entryDx=0;entryDy=0;" parent="1" source="3srKdd0KKKCA8cn5ViBD-13" target="3srKdd0KKKCA8cn5ViBD-7" edge="1">
          <mxGeometry width="50" height="50" relative="1" as="geometry">
            <mxPoint x="270" y="153" as="sourcePoint" />
            <mxPoint x="320" y="103" as="targetPoint" />
          </mxGeometry>
        </mxCell>
        <mxCell id="3srKdd0KKKCA8cn5ViBD-22" value="" style="endArrow=classic;html=1;rounded=0;dashed=1;exitX=0.5;exitY=1;exitDx=0;exitDy=0;" parent="1" source="3srKdd0KKKCA8cn5ViBD-12" target="3srKdd0KKKCA8cn5ViBD-16" edge="1">
          <mxGeometry width="50" height="50" relative="1" as="geometry">
            <mxPoint x="430" y="136" as="sourcePoint" />
            <mxPoint x="492" y="136" as="targetPoint" />
          </mxGeometry>
        </mxCell>
        <mxCell id="3srKdd0KKKCA8cn5ViBD-23" value="" style="endArrow=classic;html=1;rounded=0;dashed=1;exitX=0.5;exitY=1;exitDx=0;exitDy=0;entryX=0.5;entryY=0;entryDx=0;entryDy=0;" parent="1" source="3srKdd0KKKCA8cn5ViBD-16" target="3srKdd0KKKCA8cn5ViBD-7" edge="1">
          <mxGeometry width="50" height="50" relative="1" as="geometry">
            <mxPoint x="292.9999999999998" y="105" as="sourcePoint" />
            <mxPoint x="292.9999999999998" y="145" as="targetPoint" />
          </mxGeometry>
        </mxCell>
        <mxCell id="3srKdd0KKKCA8cn5ViBD-25" value="" style="endArrow=classic;html=1;rounded=0;dashed=1;exitX=0.5;exitY=1;exitDx=0;exitDy=0;entryX=0.5;entryY=0;entryDx=0;entryDy=0;" parent="1" source="3srKdd0KKKCA8cn5ViBD-7" target="3srKdd0KKKCA8cn5ViBD-26" edge="1">
          <mxGeometry width="50" height="50" relative="1" as="geometry">
            <mxPoint x="292.9999999999998" y="265" as="sourcePoint" />
            <mxPoint x="300" y="463" as="targetPoint" />
          </mxGeometry>
        </mxCell>
        <mxCell id="3srKdd0KKKCA8cn5ViBD-28" value="config_report.html" style="verticalLabelPosition=bottom;html=1;verticalAlign=top;strokeWidth=1;align=center;outlineConnect=0;dashed=0;outlineConnect=0;shape=mxgraph.aws3d.file;aspect=fixed;strokeColor=#292929;" parent="1" vertex="1">
          <mxGeometry x="313" y="484.15999999999997" width="20.8" height="47.68" as="geometry" />
        </mxCell>
        <mxCell id="3srKdd0KKKCA8cn5ViBD-30" value="" style="verticalLabelPosition=bottom;html=1;verticalAlign=top;strokeWidth=1;align=center;outlineConnect=0;dashed=0;outlineConnect=0;shape=mxgraph.aws3d.file;aspect=fixed;strokeColor=#292929;" parent="1" vertex="1">
          <mxGeometry x="1630" y="1260" width="20.8" height="47.68" as="geometry" />
        </mxCell>
        <mxCell id="3srKdd0KKKCA8cn5ViBD-27" value="out_read_x.xml" style="verticalLabelPosition=bottom;html=1;verticalAlign=top;strokeWidth=1;align=center;outlineConnect=0;dashed=0;outlineConnect=0;shape=mxgraph.aws3d.file;aspect=fixed;strokeColor=#292929;" parent="1" vertex="1">
          <mxGeometry x="209.60000000000002" y="485" width="20.8" height="47.68" as="geometry" />
        </mxCell>
        <mxCell id="3mv4dLHiF0YFmLdJYmqi-7" value="&lt;font style=&quot;font-size: 19px;&quot;&gt;&amp;lt;/&amp;gt;&lt;/font&gt;" style="text;html=1;strokeColor=none;fillColor=none;align=center;verticalAlign=middle;whiteSpace=wrap;rounded=0;fontStyle=1" vertex="1" parent="1">
          <mxGeometry x="304.9" y="203" width="60" height="30" as="geometry" />
        </mxCell>
        <mxCell id="3mv4dLHiF0YFmLdJYmqi-8" value="&lt;span style=&quot;color: rgb(0, 0, 0); font-family: Helvetica; font-size: 12px; font-style: normal; font-variant-ligatures: normal; font-variant-caps: normal; font-weight: 400; letter-spacing: normal; orphans: 2; text-align: center; text-indent: 0px; text-transform: none; widows: 2; word-spacing: 0px; -webkit-text-stroke-width: 0px; background-color: rgb(251, 251, 251); text-decoration-thickness: initial; text-decoration-style: initial; text-decoration-color: initial; float: none; display: inline !important;&quot;&gt;xPath&lt;/span&gt;" style="text;whiteSpace=wrap;html=1;" vertex="1" parent="1">
          <mxGeometry x="316" y="240.84" width="70" height="40" as="geometry" />
        </mxCell>
      </root>
    </mxGraphModel>
  </diagram>
</mxfile>
